<?xml version="1.0" encoding="utf-8"?>
<!-- Generator: Adobe Illustrator 16.0.4, SVG Export Plug-In . SVG Version: 6.00 Build 0)  -->
<!DOCTYPE svg PUBLIC "-//W3C//DTD SVG 1.1//EN" "http://www.w3.org/Graphics/SVG/1.1/DTD/svg11.dtd">
<svg version="1.1" id="Layer_1" xmlns="http://www.w3.org/2000/svg" xmlns:xlink="http://www.w3.org/1999/xlink" x="0px" y="0px"
	 width="24px" height="24px" viewBox="0 0 24 24" enable-background="new 0 0 24 24" xml:space="preserve">
<path fill="#010101" d="M12,0c0.338,0,0.622,0.116,0.854,0.346l8.399,8.4C21.483,8.978,21.6,9.262,21.6,9.6
	c0,0.344-0.114,0.63-0.342,0.858s-0.515,0.342-0.858,0.342c-0.338,0-0.622-0.116-0.854-0.346l-6.347-6.357V22.8
	c0,0.331-0.116,0.614-0.352,0.848C12.613,23.883,12.331,24,11.999,24s-0.614-0.117-0.849-0.353
	c-0.235-0.233-0.352-0.517-0.352-0.848V4.096l-6.347,6.357c-0.23,0.23-0.515,0.346-0.853,0.346c-0.344,0-0.63-0.114-0.858-0.342
	S2.398,9.943,2.398,9.6c0-0.338,0.116-0.622,0.346-0.854l8.4-8.4C11.376,0.116,11.66,0,11.998,0H12z"/>
</svg>
