<?xml version="1.0" encoding="utf-8"?>
<!-- Generator: Adobe Illustrator 16.0.4, SVG Export Plug-In . SVG Version: 6.00 Build 0)  -->
<!DOCTYPE svg PUBLIC "-//W3C//DTD SVG 1.1//EN" "http://www.w3.org/Graphics/SVG/1.1/DTD/svg11.dtd">
<svg version="1.1" id="Layer_1" xmlns="http://www.w3.org/2000/svg" xmlns:xlink="http://www.w3.org/1999/xlink" x="0px" y="0px"
	 width="24px" height="24px" viewBox="0 0 24 24" enable-background="new 0 0 24 24" xml:space="preserve">
<path fill="#010101" d="M12,0c0.301,0,0.559,0.106,0.772,0.319s0.319,0.47,0.319,0.771v12.638l3.588-3.596
	c0.211-0.21,0.47-0.315,0.775-0.315c0.312,0,0.572,0.104,0.78,0.311c0.208,0.207,0.312,0.467,0.312,0.779
	c0,0.307-0.105,0.566-0.315,0.776l-5.455,5.454c-0.211,0.21-0.469,0.316-0.776,0.316s-0.565-0.106-0.775-0.316L5.77,11.685
	c-0.21-0.222-0.315-0.481-0.315-0.776c0-0.301,0.107-0.558,0.32-0.771c0.212-0.213,0.47-0.32,0.771-0.319
	c0.307,0,0.565,0.105,0.776,0.315l3.588,3.596V1.091c0-0.301,0.106-0.558,0.319-0.771S11.698,0,12,0z M22.909,15.272
	c0.301,0,0.558,0.107,0.771,0.318C23.894,15.805,24,16.062,24,16.363v4.363c0,0.909-0.316,1.68-0.947,2.311
	C22.411,23.68,21.644,24,20.752,24H3.272c-0.892,0-1.665-0.316-2.318-0.953C0.317,22.394,0,21.621,0,20.729v-4.364
	c0-0.301,0.106-0.558,0.319-0.771c0.213-0.213,0.47-0.319,0.771-0.319s0.559,0.107,0.771,0.319s0.319,0.47,0.319,0.771v4.364
	c0,0.301,0.106,0.558,0.319,0.771c0.213,0.213,0.47,0.319,0.771,0.318h17.48c0.295,0,0.546-0.106,0.754-0.318
	c0.208-0.213,0.312-0.471,0.312-0.771v-4.364c0-0.301,0.106-0.558,0.318-0.771c0.213-0.213,0.471-0.319,0.771-0.319L22.909,15.272z"
	/>
</svg>
