<?xml version="1.0" encoding="utf-8"?>
<!-- Generator: Adobe Illustrator 16.0.4, SVG Export Plug-In . SVG Version: 6.00 Build 0)  -->
<!DOCTYPE svg PUBLIC "-//W3C//DTD SVG 1.1//EN" "http://www.w3.org/Graphics/SVG/1.1/DTD/svg11.dtd">
<svg version="1.1" id="Layer_1" xmlns="http://www.w3.org/2000/svg" xmlns:xlink="http://www.w3.org/1999/xlink" x="0px" y="0px"
	 width="24px" height="24px" viewBox="0 0 24 24" enable-background="new 0 0 24 24" xml:space="preserve">
<path fill="#010101" d="M12,0C5.372,0,0,5.372,0,12c0,6.627,5.372,12,12,12s12-5.373,12-12C24,5.372,18.628,0,12,0z M19.127,19.125
	c-0.927,0.926-2.006,1.652-3.205,2.16c-0.305,0.129-0.614,0.242-0.929,0.34v-1.799c0-0.945-0.324-1.641-0.973-2.086
	c0.406-0.039,0.779-0.094,1.119-0.164c0.34-0.068,0.698-0.17,1.077-0.305c0.38-0.133,0.719-0.291,1.02-0.475
	c0.302-0.182,0.59-0.42,0.867-0.715c0.278-0.293,0.51-0.623,0.698-0.994c0.187-0.373,0.336-0.818,0.444-1.338
	c0.109-0.52,0.164-1.092,0.164-1.717c0-1.21-0.394-2.242-1.184-3.094c0.359-0.938,0.32-1.956-0.117-3.058l-0.293-0.035
	c-0.202-0.023-0.568,0.062-1.095,0.258c-0.527,0.195-1.118,0.515-1.776,0.96c-0.929-0.257-1.894-0.386-2.894-0.386
	c-1.008,0-1.969,0.129-2.882,0.386C8.754,6.783,8.362,6.552,7.991,6.368C7.62,6.185,7.323,6.059,7.1,5.993S6.67,5.886,6.479,5.87
	S6.165,5.851,6.11,5.858C6.054,5.866,6.016,5.874,5.993,5.882C5.555,6.99,5.516,8.011,5.876,8.939
	c-0.79,0.852-1.184,1.883-1.184,3.094c0,0.623,0.054,1.197,0.164,1.717c0.109,0.52,0.258,0.965,0.445,1.336
	c0.188,0.371,0.42,0.703,0.697,0.996s0.566,0.531,0.867,0.715c0.301,0.184,0.641,0.342,1.02,0.475s0.738,0.234,1.078,0.305
	c0.34,0.07,0.712,0.125,1.12,0.164c-0.641,0.438-0.961,1.133-0.961,2.086v1.832c-0.354-0.104-0.702-0.229-1.045-0.373
	c-1.199-0.508-2.277-1.234-3.204-2.162c-0.927-0.924-1.653-2.004-2.16-3.203c-0.525-1.242-0.792-2.561-0.792-3.922
	s0.267-2.681,0.792-3.922c0.507-1.199,1.234-2.277,2.16-3.204s2.005-1.653,3.204-2.16c1.242-0.525,2.561-0.792,3.922-0.792
	c1.361,0,2.681,0.267,3.921,0.792c1.2,0.507,2.278,1.234,3.205,2.16s1.652,2.005,2.16,3.204c0.524,1.241,0.791,2.561,0.791,3.922
	s-0.267,2.68-0.791,3.922c-0.508,1.199-1.235,2.277-2.16,3.203L19.127,19.125z"/>
</svg>
