<?xml version="1.0" encoding="utf-8"?>
<!-- Generator: Adobe Illustrator 16.0.4, SVG Export Plug-In . SVG Version: 6.00 Build 0)  -->
<!DOCTYPE svg PUBLIC "-//W3C//DTD SVG 1.1//EN" "http://www.w3.org/Graphics/SVG/1.1/DTD/svg11.dtd">
<svg version="1.1" id="Layer_1" xmlns="http://www.w3.org/2000/svg" xmlns:xlink="http://www.w3.org/1999/xlink" x="0px" y="0px"
	 width="24px" height="24px" viewBox="0 0 24 24" enable-background="new 0 0 24 24" xml:space="preserve">
<path fill="#010101" d="M6.757,3.1c0,1.132-0.835,2.049-2.211,2.049c-1.294,0-2.129-0.917-2.129-2.049
	c0-1.158,0.864-2.049,2.184-2.049C5.921,1.051,6.73,1.941,6.757,3.1z M2.525,19.949V6.768h4.097v13.182H2.525z M9.075,10.972
	c0-1.645-0.053-3.019-0.108-4.205h3.56L12.714,8.6h0.081c0.539-0.863,1.861-2.13,4.071-2.13c2.693,0,4.717,1.807,4.717,5.689v7.79
	h-4.098v-7.305c0-1.698-0.595-2.858-2.077-2.858c-1.131,0-1.805,0.781-2.101,1.535c-0.109,0.271-0.136,0.646-0.136,1.023v7.604
	H9.076L9.075,10.972L9.075,10.972z"/>
</svg>
