<?xml version="1.0" encoding="utf-8"?>
<!-- Generator: Adobe Illustrator 16.0.4, SVG Export Plug-In . SVG Version: 6.00 Build 0)  -->
<!DOCTYPE svg PUBLIC "-//W3C//DTD SVG 1.1//EN" "http://www.w3.org/Graphics/SVG/1.1/DTD/svg11.dtd">
<svg version="1.1" id="Layer_1" xmlns="http://www.w3.org/2000/svg" xmlns:xlink="http://www.w3.org/1999/xlink" x="0px" y="0px"
	 width="24px" height="24px" viewBox="0 0 24 24" enable-background="new 0 0 24 24" xml:space="preserve">
<path fill="#010101" d="M3.273,0h7.636c0.301,0,0.558,0.107,0.771,0.32S12,0.791,12,1.092s-0.106,0.559-0.32,0.771
	s-0.47,0.319-0.771,0.319H3.273c-0.301,0-0.558,0.106-0.771,0.32C2.289,2.716,2.182,2.974,2.182,3.274v17.454
	c0,0.3,0.106,0.559,0.319,0.771c0.213,0.213,0.47,0.319,0.771,0.319h17.454c0.302,0,0.558-0.106,0.771-0.319
	c0.213-0.213,0.32-0.472,0.32-0.771v-7.637c0-0.3,0.105-0.558,0.32-0.771c0.211-0.214,0.47-0.32,0.771-0.32
	c0.302,0,0.559,0.106,0.771,0.32C23.895,12.534,24,12.792,24,13.092v7.637c0,0.902-0.319,1.674-0.959,2.313
	C22.402,23.681,21.631,24,20.729,24H3.274c-0.903,0-1.674-0.319-2.313-0.958c-0.64-0.64-0.959-1.411-0.959-2.313V3.274
	c0-0.903,0.32-1.675,0.959-2.313c0.639-0.64,1.41-0.959,2.313-0.959L3.273,0z M16.362,0h6.546c0.301,0,0.559,0.107,0.771,0.32
	s0.319,0.471,0.319,0.771v6.545c0,0.302-0.106,0.559-0.319,0.772c-0.213,0.213-0.471,0.318-0.771,0.318
	c-0.302,0-0.559-0.105-0.772-0.318c-0.213-0.214-0.319-0.471-0.319-0.772V3.726l-9.049,9.049c-0.21,0.211-0.466,0.315-0.768,0.315
	c-0.313,0-0.573-0.104-0.779-0.31c-0.208-0.208-0.311-0.467-0.311-0.78c0-0.302,0.104-0.557,0.315-0.767l9.05-9.051h-3.913
	c-0.301,0-0.559-0.106-0.771-0.319c-0.214-0.213-0.32-0.471-0.32-0.771s0.106-0.559,0.32-0.771C15.804,0.107,16.062,0,16.362,0z"/>
</svg>
