<?xml version="1.0" encoding="utf-8"?>
<!-- Generator: Adobe Illustrator 16.0.4, SVG Export Plug-In . SVG Version: 6.00 Build 0)  -->
<!DOCTYPE svg PUBLIC "-//W3C//DTD SVG 1.1//EN" "http://www.w3.org/Graphics/SVG/1.1/DTD/svg11.dtd">
<svg version="1.1" id="Layer_1" xmlns="http://www.w3.org/2000/svg" xmlns:xlink="http://www.w3.org/1999/xlink" x="0px" y="0px"
	 width="24px" height="24px" viewBox="0 0 24 24" enable-background="new 0 0 24 24" xml:space="preserve">
<path fill="#010101" d="M24,4.558c-0.883,0.391-1.832,0.656-2.828,0.775c1.018-0.61,1.799-1.575,2.165-2.725
	c-0.951,0.564-2.006,0.975-3.127,1.195c-0.897-0.956-2.178-1.555-3.594-1.555c-2.72,0-4.924,2.204-4.924,4.924
	c0,0.385,0.043,0.761,0.127,1.122C7.728,8.089,4.1,6.13,1.671,3.15C1.247,3.878,1.004,4.723,1.004,5.626
	c0,1.707,0.87,3.214,2.191,4.098c-0.808-0.025-1.566-0.247-2.23-0.616c-0.001,0.021-0.001,0.04-0.001,0.061
	c0,2.386,1.698,4.376,3.95,4.828c-0.413,0.112-0.848,0.172-1.298,0.172c-0.317,0-0.625-0.03-0.926-0.088
	c0.626,1.956,2.444,3.38,4.6,3.419c-1.685,1.32-3.808,2.107-6.115,2.107c-0.398,0-0.79-0.022-1.174-0.068
	c2.179,1.396,4.767,2.212,7.548,2.212c9.057,0,14.01-7.503,14.01-14.008c0-0.214-0.006-0.426-0.016-0.637
	C22.505,6.412,23.339,5.544,24,4.558L24,4.558L24,4.558z"/>
</svg>
