<?xml version="1.0" encoding="utf-8"?>
<!-- Generator: Adobe Illustrator 16.0.4, SVG Export Plug-In . SVG Version: 6.00 Build 0)  -->
<!DOCTYPE svg PUBLIC "-//W3C//DTD SVG 1.1//EN" "http://www.w3.org/Graphics/SVG/1.1/DTD/svg11.dtd">
<svg version="1.1" id="Layer_1" xmlns="http://www.w3.org/2000/svg" xmlns:xlink="http://www.w3.org/1999/xlink" x="0px" y="0px"
	 width="24px" height="24px" viewBox="0 0 24 24" enable-background="new 0 0 24 24" xml:space="preserve">
<path fill="#FFFFFF" d="M23.999,12.001c0,0.338-0.116,0.622-0.347,0.853l-8.399,8.399c-0.232,0.229-0.517,0.347-0.854,0.347
	c-0.344,0-0.63-0.113-0.857-0.342c-0.229-0.229-0.342-0.515-0.342-0.857c0-0.338,0.115-0.623,0.346-0.854l6.356-6.347H1.199
	c-0.331,0-0.614-0.116-0.849-0.352C0.116,12.614-0.001,12.332-0.001,12s0.117-0.614,0.354-0.849
	c0.232-0.235,0.516-0.353,0.847-0.353l18.703,0l-6.356-6.347C13.315,4.223,13.2,3.938,13.2,3.6c0-0.345,0.113-0.631,0.342-0.858
	c0.228-0.228,0.514-0.342,0.856-0.342c0.338,0,0.622,0.116,0.854,0.346l8.399,8.4c0.23,0.232,0.347,0.516,0.347,0.854V12.001z"/>
</svg>
