<?xml version="1.0" encoding="utf-8"?>
<!-- Generator: Adobe Illustrator 16.0.4, SVG Export Plug-In . SVG Version: 6.00 Build 0)  -->
<!DOCTYPE svg PUBLIC "-//W3C//DTD SVG 1.1//EN" "http://www.w3.org/Graphics/SVG/1.1/DTD/svg11.dtd">
<svg version="1.1" id="Layer_1" xmlns="http://www.w3.org/2000/svg" xmlns:xlink="http://www.w3.org/1999/xlink" x="0px" y="0px"
	 width="24px" height="24px" viewBox="0 0 24 24" enable-background="new 0 0 24 24" xml:space="preserve">
<path fill="#010101" d="M8.128,20.546c-0.211,0-0.42-0.088-0.57-0.24c-0.313-0.312-0.313-0.825,0.001-1.138l7.171-7.171L7.559,4.824
	C7.407,4.672,7.322,4.469,7.322,4.253c0-0.214,0.084-0.417,0.237-0.57c0.305-0.306,0.835-0.306,1.141,0l7.744,7.743
	c0.15,0.152,0.234,0.354,0.233,0.569c-0.002,0.216-0.086,0.418-0.239,0.569l-7.742,7.741C8.556,20.456,8.346,20.546,8.128,20.546z"
	/>
<path fill="#FFFFFF" d="M8.128,20.987c-0.331,0-0.656-0.137-0.891-0.374c-0.234-0.234-0.365-0.55-0.365-0.886
	c0-0.336,0.131-0.651,0.369-0.888l6.852-6.852L7.241,5.134C7.003,4.897,6.872,4.581,6.872,4.245c0-0.334,0.131-0.65,0.369-0.888
	C7.698,2.897,8.56,2.897,9.019,3.357l7.744,7.743c0.237,0.24,0.366,0.555,0.365,0.89c-0.003,0.338-0.136,0.653-0.373,0.888
	l-7.74,7.739C8.796,20.849,8.47,20.987,8.128,20.987z"/>
</svg>
