<?xml version="1.0" encoding="utf-8"?>
<!-- Generator: Adobe Illustrator 16.0.4, SVG Export Plug-In . SVG Version: 6.00 Build 0)  -->
<!DOCTYPE svg PUBLIC "-//W3C//DTD SVG 1.1//EN" "http://www.w3.org/Graphics/SVG/1.1/DTD/svg11.dtd">
<svg version="1.1" id="Layer_1" xmlns="http://www.w3.org/2000/svg" xmlns:xlink="http://www.w3.org/1999/xlink" x="0px" y="0px"
	 width="24px" height="24px" viewBox="0 0 24 24" enable-background="new 0 0 24 24" xml:space="preserve">
<path fill="#010101" d="M12,0c1.631,0,3.187,0.316,4.666,0.95s2.756,1.486,3.826,2.557c1.072,1.071,1.924,2.347,2.558,3.827
	C23.683,8.814,24,10.369,24,12s-0.317,3.187-0.95,4.666c-0.634,1.479-1.485,2.756-2.558,3.826c-1.07,1.072-2.347,1.924-3.826,2.558
	C15.187,23.683,13.631,24,12,24c-1.63,0-3.186-0.317-4.666-0.95c-1.48-0.634-2.755-1.485-3.827-2.558
	c-1.071-1.07-1.923-2.347-2.557-3.826C0.316,15.187,0,13.631,0,12s0.316-3.186,0.95-4.666c0.633-1.48,1.486-2.756,2.557-3.827
	C4.579,2.437,5.854,1.584,7.334,0.95S10.37,0,12,0z M12,2.182c-1.33,0-2.601,0.26-3.814,0.779c-1.213,0.52-2.257,1.217-3.132,2.092
	C4.18,5.928,3.482,6.972,2.962,8.185c-0.52,1.213-0.78,2.484-0.78,3.814c0.001,1.329,0.261,2.602,0.78,3.813
	c0.52,1.214,1.216,2.258,2.092,3.133c0.876,0.874,1.92,1.572,3.132,2.092c1.212,0.521,2.483,0.78,3.814,0.78
	c1.33,0,2.602-0.26,3.813-0.78c1.213-0.52,2.257-1.218,3.133-2.092c0.875-0.875,1.572-1.919,2.091-3.133
	c0.521-1.212,0.78-2.484,0.78-3.813c0.001-1.33-0.259-2.601-0.78-3.814c-0.52-1.213-1.218-2.257-2.091-3.132
	c-0.875-0.875-1.919-1.572-3.133-2.092C14.601,2.441,13.329,2.182,12,2.182z M12,4.363c0.301,0,0.559,0.106,0.772,0.319
	c0.213,0.213,0.32,0.471,0.32,0.772v6.094l2.957,2.95c0.21,0.209,0.314,0.468,0.314,0.774c0,0.308-0.104,0.565-0.314,0.776
	c-0.211,0.21-0.47,0.314-0.776,0.314s-0.565-0.104-0.774-0.314l-3.274-3.273c-0.21-0.21-0.315-0.469-0.315-0.775V5.455
	c0-0.301,0.106-0.559,0.32-0.772C11.441,4.47,11.699,4.363,12,4.363z"/>
</svg>
