<?xml version="1.0" encoding="utf-8"?>
<!-- Generator: Adobe Illustrator 16.0.4, SVG Export Plug-In . SVG Version: 6.00 Build 0)  -->
<!DOCTYPE svg PUBLIC "-//W3C//DTD SVG 1.1//EN" "http://www.w3.org/Graphics/SVG/1.1/DTD/svg11.dtd">
<svg version="1.1" id="Layer_1" xmlns="http://www.w3.org/2000/svg" xmlns:xlink="http://www.w3.org/1999/xlink" x="0px" y="0px"
	 width="24px" height="24px" viewBox="0 0 24 24" enable-background="new 0 0 24 24" xml:space="preserve">
<path fill="#FFFFFF" d="M18.437,16.741l0.003-0.003L13.701,12l6.785-6.787c0.235-0.233,0.353-0.518,0.35-0.848
	c0.002-0.333-0.114-0.615-0.35-0.85c-0.234-0.235-0.517-0.352-0.848-0.352c-0.332,0-0.615,0.117-0.849,0.352l-2.049,2.048
	l-0.002-0.002L12,10.299L5.214,3.513C4.98,3.279,4.696,3.162,4.366,3.164C4.033,3.162,3.75,3.279,3.516,3.514
	S3.164,4.031,3.164,4.362c0,0.332,0.118,0.615,0.352,0.849L5.564,7.26L5.562,7.262L10.3,12l-6.787,6.786
	c-0.235,0.233-0.352,0.519-0.35,0.848c-0.001,0.334,0.115,0.615,0.351,0.852c0.234,0.233,0.517,0.352,0.848,0.352
	c0.333,0.001,0.615-0.117,0.849-0.352l2.049-2.049l0.003,0.003L12,13.7l6.786,6.786c0.233,0.235,0.519,0.353,0.849,0.35
	c0.333,0.002,0.614-0.115,0.851-0.351c0.233-0.233,0.352-0.516,0.351-0.847c0.002-0.333-0.116-0.615-0.351-0.849L18.437,16.741z"/>
</svg>
