<?xml version="1.0" encoding="utf-8"?>
<!-- Generator: Adobe Illustrator 16.0.4, SVG Export Plug-In . SVG Version: 6.00 Build 0)  -->
<!DOCTYPE svg PUBLIC "-//W3C//DTD SVG 1.1//EN" "http://www.w3.org/Graphics/SVG/1.1/DTD/svg11.dtd">
<svg version="1.1" id="Layer_1" xmlns="http://www.w3.org/2000/svg" xmlns:xlink="http://www.w3.org/1999/xlink" x="0px" y="0px"
	 width="24px" height="24px" viewBox="0 0 24 24" enable-background="new 0 0 24 24" xml:space="preserve">
<path fill="#010101" d="M21.818,20.729H2.182C0.978,20.729,0,19.75,0,18.546V5.454C0,4.25,0.978,3.272,2.182,3.272h19.636
	C23.021,3.272,24,4.25,24,5.454v13.092C24,19.75,23.021,20.729,21.818,20.729z M20.729,18.546l-6.254-5.473L12,15.271l-2.474-2.198
	l-6.253,5.473H20.729z M2.182,17.455L8.317,12L2.182,6.545V17.455z M3.272,5.454L12,13.091l8.729-7.637H3.272z M21.818,6.545
	L15.684,12l6.137,5.455V6.545H21.818z"/>
</svg>
